<svg width="11" height="12" viewBox="0 0 11 12" fill="none" xmlns="http://www.w3.org/2000/svg">
<path fill-rule="evenodd" clip-rule="evenodd" d="M7.31679 7.2971H7.81054L10.9293 10.4221L9.99804 11.3534L6.87304 8.2346V7.74085L6.70429 7.56585C5.99179 8.17835 5.06679 8.5471 4.06054 8.5471C1.81682 8.5471 -0.00195312 6.72835 -0.00195312 4.4846C-0.00195312 2.24086 1.81682 0.422104 4.06054 0.422104C6.30429 0.422104 8.12304 2.24086 8.12304 4.4846C8.12304 5.49085 7.75429 6.41585 7.14185 7.12835L7.31679 7.2971ZM1.24805 4.4846C1.24805 6.04085 2.5043 7.2971 4.06054 7.2971C5.61679 7.2971 6.87304 6.04085 6.87304 4.4846C6.87304 2.92836 5.61679 1.6721 4.06054 1.6721C2.5043 1.6721 1.24805 2.92836 1.24805 4.4846Z" fill="black" fill-opacity="0.54"/>
</svg>
